<svg xmlns="http://www.w3.org/2000/svg" xmlns:xlink="http://www.w3.org/1999/xlink" viewBox="0 0 297.31 349.49"><defs><style>.cls-1{fill:#2a8b76;}.cls-2{clip-path:url(#clip-path);}.cls-3{fill:none;stroke:#fff;stroke-linejoin:round;}</style><clipPath id="clip-path"><circle class="cls-1" cx="148.66" cy="148.66" r="148.66"/></clipPath></defs><title>icon</title><g id="Capa_2" data-name="Capa 2"><g id="LOGOS"><circle class="cls-1" cx="148.66" cy="148.66" r="148.66"/><g class="cls-2"><path class="cls-3" d="M104.25,31s-3.09-3.61-3.73-2.67-9.69,92.46,46.2,86.08c51.1-13.34-5.56-92.08-5.56-92.08s-7.6,84.28,8.27,90c21.86,2.23,8.63-70.19-35.59-85.88-15-5.25-11.56,88.26,34.4,87.13"/><path class="cls-3" d="M171.78,274.12c43.37-23.83,16.35-114.29,82.67-152.05,0,0-93.59-5.66-122,188.71,0,0,46.39-69.24-35.53-171.42,21,9.08,9,45.68,14.79,97.19,8.4,39.67,14.74,80.64,6.17,112.43,22.06-7.42,77.46-146,28.87-234.61"/></g></g></g></svg>