<svg xmlns="http://www.w3.org/2000/svg" xmlns:xlink="http://www.w3.org/1999/xlink" viewBox="0 0 721.12 532.28"><defs><style>.cls-1{fill:#2a8b76;}.cls-2{clip-path:url(#clip-path);}.cls-3{fill:none;stroke:#fff;stroke-linejoin:round;}.cls-4{fill:#1a1414;}.cls-5{fill:#2e2528;}</style><clipPath id="clip-path"><circle class="cls-1" cx="554.48" cy="183.44" r="148.66"/></clipPath></defs><title>logo</title><g id="Capa_2" data-name="Capa 2"><g id="LOGOS"><circle class="cls-1" cx="554.48" cy="183.44" r="148.66"/><g class="cls-2"><path class="cls-3" d="M510.07,65.75s-3.09-3.61-3.73-2.67-9.69,92.46,46.2,86.08c51.1-13.34-5.56-92.08-5.56-92.08s-7.6,84.28,8.27,90c21.86,2.23,8.63-70.19-35.59-85.88-15-5.25-11.56,88.26,34.4,87.13"/><path class="cls-3" d="M577.6,308.9C621,285.06,593.95,194.6,660.27,156.84c0,0-93.59-5.66-122,188.71,0,0,46.39-69.24-35.53-171.42,21,9.08,9,45.68,14.79,97.19,8.4,39.67,14.74,80.64,6.17,112.43,22.06-7.42,77.46-146,28.87-234.61"/></g><path class="cls-4" d="M112.39,411.9a29,29,0,0,1-1-5q-.24-2.41-.49-5a57,57,0,0,1,0-7.41,81,81,0,0,1,1.48-15.19,151.39,151.39,0,0,1,3.7-15.19,219.61,219.61,0,0,1,13.83-32Q138.07,316.71,145,306l2.22-3.34a35.08,35.08,0,0,1,2.22-3,478.81,478.81,0,0,1,30-38.15,355,355,0,0,1,35.68-35.56,47.51,47.51,0,0,1,5.68-3.7,25.11,25.11,0,0,1,5.06-1.67,6.82,6.82,0,0,1,5.06.93q1.48.75,3.46,4.07t1.85,9.45q-.13,6.11-3.71,15T219.69,271q-9.26,12-25.68,27.6T151.65,333l-4.45,6.67q-2.47,4.08-5.43,9.81T136,361.9A134.66,134.66,0,0,0,130.91,376a93.76,93.76,0,0,0-3.21,15.19c-.17,1.48-.29,2.91-.37,4.26s-.12,2.78-.12,4.26a51.25,51.25,0,0,0,2.47,16.3h-.25a10.9,10.9,0,0,0,3,3.52,5.8,5.8,0,0,0,4.45.93q4.69,0,11.11-3.15a132.64,132.64,0,0,0,13.58-7.78q7.16-4.63,14.32-10.19t13.58-10.93q6.42-5.36,11.61-10t8.15-7.22l7.9.37Q202.52,386,188.7,398.2q-5.93,5.19-12.35,10.37t-12.72,9.63A141.84,141.84,0,0,1,151.41,426a54.24,54.24,0,0,1-10.87,4.82h-.74a19.36,19.36,0,0,1-16.05-1.11l-2-1.48-2-1.48A33.24,33.24,0,0,1,112.39,411.9Zm24.2-89.28c-.17.25-.09.37.25.37l.25-.37c.16-.24.28-.37.37-.37s.29-.24.62-.74l3-4.45c-.33,1-.29,1.24.12.74a27.19,27.19,0,0,0,1.6-2.22,13.66,13.66,0,0,1,2-2,13.51,13.51,0,0,0,2-2,5.26,5.26,0,0,0,.74-3,22.85,22.85,0,0,1,1.23-2.22c.33-.49.82-1.35,1.48-2.59a9.26,9.26,0,0,0,1.73-3,1.35,1.35,0,0,0,.25-.74l-.74.37a11.58,11.58,0,0,1-1,1.3,11.38,11.38,0,0,0-1,1.3c-.33.5-.7,1.11-1.11,1.85A8.28,8.28,0,0,1,147,306.7c-.49.74-1,1.43-1.48,2a9.33,9.33,0,0,0-1.24,2l-2.71,4.08-1.24,1.85q-1,1.48-2.22,3.52C137.24,321.58,136.75,322.39,136.59,322.63Zm94.09-85.2q1.48-6.3-3.09-3.34t-12.22,11.48Q207.71,254.11,198,266t-18.4,23.34q-8.65,11.49-15.19,20.37t-8,11.48q18.76-15.19,34.33-30,6.67-6.29,13.21-13.34t12-14.08A135.7,135.7,0,0,0,225.24,250,47.76,47.76,0,0,0,230.68,237.43ZM166,282.25c-.33.5-.41.74-.25.74h.49c.16,0,.66-.49,1.48-1.48a14.23,14.23,0,0,1,1.73-1.85c.66-.74,1.48-1.72,2.47-3s1.56-2,1.73-2.22l3-3.34,2.22-2.22.49-.37h.25a3,3,0,0,0,.74-.74,3.17,3.17,0,0,1,.74-.74,4.34,4.34,0,0,1,.74-.93,4.27,4.27,0,0,0,.74-.92,20.27,20.27,0,0,0,1.61-1.85,17.32,17.32,0,0,1,2.1-2.22,4.46,4.46,0,0,1,1-1.11,4.44,4.44,0,0,0,1-1.11,6.17,6.17,0,0,0,1.23-1.48l.87-1.3a9.32,9.32,0,0,1,1.11-1.3c.33-.74.41-1.17.25-1.3l-.74-.56a1.23,1.23,0,0,0-.74.19.81.81,0,0,1-.49.19h-.49c-.49.5-1.07,1.11-1.73,1.85s-1.4,1.61-2.22,2.59l-5.19,6.67a6.44,6.44,0,0,0-1.23,1.48c-1,1.24-1.81,2.22-2.47,3s-1.48,1.73-2.47,3c-.49.5-.95,1-1.36,1.48a17.47,17.47,0,0,0-1.11,1.48,11.93,11.93,0,0,1-1,1.3,11.33,11.33,0,0,0-1,1.3q-.5.75-1.73,2.41T166,282.25Zm30.13-33.34q-.5,1.48.74,0a13.28,13.28,0,0,1,3.7-3.7l2.22-2.22,2.22-2.22,2.22-2.22a13.93,13.93,0,0,1,1.48-1.3,13.53,13.53,0,0,0,1.48-1.3,24.39,24.39,0,0,1,2.84-2.41,4.56,4.56,0,0,0,1.36-1.3,7.5,7.5,0,0,1,.87-1.11l1.11-1.11c1.15-1,1.15-1.48,0-1.48a.83.83,0,0,0-.49.19.82.82,0,0,1-.49.19h-.74a5.15,5.15,0,0,0-2,1.48,3.81,3.81,0,0,1-1,.56,4.13,4.13,0,0,0-1,.56,20.61,20.61,0,0,0-1.48,1.67c-.49.62-1,1.3-1.48,2a8.28,8.28,0,0,0-.86.74,7.59,7.59,0,0,1-.87.74,19.61,19.61,0,0,1-1.73,1.85,23.74,23.74,0,0,0-2,1.67,27.07,27.07,0,0,0-2.22,2.41,10.19,10.19,0,0,0-3,3.7A17.17,17.17,0,0,0,196.1,248.91Z"/><path class="cls-4" d="M188.94,413.14a23,23,0,0,1,4.32-10.74A74.26,74.26,0,0,1,201.9,392a105.8,105.8,0,0,1,9.38-8.4,60.77,60.77,0,0,1,6.79-4.82q.49-.24,1.36-.74a17,17,0,0,1,2.1-1q4.2-2,8.52-3.58a52.87,52.87,0,0,1,8-2.35,25.71,25.71,0,0,1,5.43-.37,7.74,7.74,0,0,1,4.2,1.36q4.45,2.72,5.55,5.68a9,9,0,0,1,.37,5.68,9.43,9.43,0,0,0-.49,1.24,11,11,0,0,1-1,2q-3.7,4.94-11.11,7.53a88.9,88.9,0,0,1-14.82,3.83,26.8,26.8,0,0,1-4.2.62c-1.32.09-2.63.21-4,.37a10.84,10.84,0,0,1-2.1.25,7.82,7.82,0,0,0-1.85.25q-.74,1-2.1,3t-2.59,4.2q-1.23,2.22-2.35,4.2a7,7,0,0,0-1.11,3,8.86,8.86,0,0,0-.24,2.47,5.92,5.92,0,0,0,1.23,3.46,9.52,9.52,0,0,0,3,3.09q2,1.36,6.17,1.36a6.32,6.32,0,0,0,2.22.12,24.44,24.44,0,0,0,2.47-.37,78.25,78.25,0,0,0,17.78-5.55q10.12-4.32,20-9.51t18.27-10.13l12.59-7.41h8.89q-13.83,9.14-27.41,17-11.61,6.67-24.45,13a126.06,126.06,0,0,1-23.21,9,47.45,47.45,0,0,1-12.35,2,32.16,32.16,0,0,1-8.64-1,14.83,14.83,0,0,1-6.67-3.21,19.16,19.16,0,0,1-4.69-5.68A15.22,15.22,0,0,1,188.94,413.14Zm13.58-19.51h-.25a1.37,1.37,0,0,0-.62.49,1.84,1.84,0,0,1-.37.49,5.4,5.4,0,0,0-1,1.24,16.53,16.53,0,0,1-1.11,1.48q-.61.74-1.11,1.48c-.33.33-.49.58-.49.74a5.23,5.23,0,0,0-1,1.24l-.49,1c0,.17.08.17.25,0l.49-.49a6.75,6.75,0,0,1,1.24-1.73q-.25.5.74-.49a6.07,6.07,0,0,1,.86-.74,5.76,5.76,0,0,0,.87-.74c.17,0,.25-.33.25-1,.16-.16.25-.28.25-.37s.08-.21.25-.37l.49-1c.49-.49.74-.82.74-1Zm6.67-5.68c-.16,0-.16.09,0,.25a.22.22,0,0,1,.25-.25.72.72,0,0,0,.49-.25l.74-.74a11.94,11.94,0,0,0,1.24-.74,6.88,6.88,0,0,0,1-.74l1.48-.74,1-.49a.22.22,0,0,0,.25-.25h.25a.5.5,0,0,0,.37-.12.51.51,0,0,1,.37-.12c.16-.16.28-.25.37-.25s.2-.08.37-.25q.49-.49.74-.49a3,3,0,0,0,.62-.37,2.74,2.74,0,0,1,.62-.37,1.42,1.42,0,0,0,1-.49c.16,0,.25,0,.25-.12s.08-.12.25-.12a3.82,3.82,0,0,1,1-.74c.49-.49.41-.74-.24-.74-.17,0-.25,0-.25-.12s-.09-.12-.25-.12h-.25a5.67,5.67,0,0,0-2.22,1.23,2.87,2.87,0,0,0-.62.37,2.62,2.62,0,0,1-.62.37,2.84,2.84,0,0,0-.74.49,2.87,2.87,0,0,1-.74.49l-.49.25a3.51,3.51,0,0,1-.74.62,2,2,0,0,0-.49.37,2.87,2.87,0,0,0-.62.37,2.86,2.86,0,0,1-.62.37,5.31,5.31,0,0,0-1.23,1,1.36,1.36,0,0,0-.62.49.39.39,0,0,1-.37.25l-.86.87A3.22,3.22,0,0,0,209.19,387.95Zm13.34,3.71a3.82,3.82,0,0,0-1,.74.72.72,0,0,0-.49.25l-.49.49,4.45-.74a53.85,53.85,0,0,0,12-4.07q5.3-2.59,7.28-3.83a4.19,4.19,0,0,0,1.73-2.22v-1q.49-2.22-2.22-1.73-2.72,0-7.9,3.21a59,59,0,0,0-6.3,3.7q-3.33,2.22-6.79,4.69a.22.22,0,0,1-.25.25Zm1.73-12.84c-.16.49,0,.58.49.25H225l.49-.25a1.67,1.67,0,0,1,1.23-.49.71.71,0,0,1,.49-.25.73.73,0,0,0,.49-.25,1,1,0,0,0,.74-.25h.49c.33-.16.7-.33,1.11-.49a13.7,13.7,0,0,1,1.6-.49l1.48-.49a1,1,0,0,0,.74-.25,1.1,1.1,0,0,0,.49-.12,1.68,1.68,0,0,1,.74-.12q.49-.25,0-.74h-.49a.22.22,0,0,1-.25-.25,7.86,7.86,0,0,0-2.1.25,11,11,0,0,0-1.85.74,6.17,6.17,0,0,1-1.73.74,10,10,0,0,0-2.22,1,1.72,1.72,0,0,0-.74.12,1.1,1.1,0,0,1-.49.12l-.49.49c-.17.16-.25.29-.25.37S224.42,378.65,224.25,378.81Z"/><path class="cls-4" d="M284.51,425.49q6.67-.5,17.17-6.42a258.09,258.09,0,0,0,21.85-14q11.36-8,21.73-16.18t16.55-13.34q3.45-3,4.69-4a20.84,20.84,0,0,1,3-3.7q1.72-1.72,3-1.73,2-.25,4.82-.49a17.92,17.92,0,0,1,5.19.25,7,7,0,0,1,3.83,2.1q1.48,1.61.74,5.06a64,64,0,0,1-8.4,12.59q-5.68,6.92-12.22,14.2t-13.21,14.2q-6.67,6.91-11,12.22t-5.56,8.77q-1.24,3.46,2.72,3.71a29.63,29.63,0,0,0,11.11-1.36,121.81,121.81,0,0,0,13.83-5q7.41-3.16,15.31-7.41t15.31-8.69q17.29-10.62,36.55-24.45h9.14a414.07,414.07,0,0,1-40,28.65q-8.4,5.18-17.54,10a181.2,181.2,0,0,1-18.27,8.4,105.11,105.11,0,0,1-17.9,5.31,49.84,49.84,0,0,1-16.18.74q-7.91-1-8.52-6.42t3.09-13.09a98.37,98.37,0,0,1,10.37-16.42q6.67-8.76,13.34-16.42-6.92,5.93-15.56,12.72T315.87,418a124.19,124.19,0,0,1-17.53,9.64,43,43,0,0,1-15.81,4.07h-3.09a13,13,0,0,1-2.59-.25,20.15,20.15,0,0,1-7.16-1.89,9,9,0,0,1-5.19-8.35,25.87,25.87,0,0,1,.49-5.06,26.34,26.34,0,0,1,2.22-5.81,48.43,48.43,0,0,1,3.21-5.31q2.23-3.21,4.2-5.68,4.94-5.18,9.51-10t8.52-9q3.95-4,6.67-6.42t4.45-4l1.48-.74c.66-.33,1.4-.66,2.22-1q7.65-1.23,11-.87a55.13,55.13,0,0,0,6,.37,11.62,11.62,0,0,1,1.48.62c.49.25.33.78-.49,1.6a233.32,233.32,0,0,0-20.13,18.27Q295.13,398.57,286,408.94a15.21,15.21,0,0,1-1.48,2.1,17.64,17.64,0,0,0-1.23,1.6,19.06,19.06,0,0,0-3,6.05,7.48,7.48,0,0,0,0,3.83,4.74,4.74,0,0,0,2,2.72A7.53,7.53,0,0,0,284.51,425.49Zm-8.15-23.71c0-.16,0-.25.12-.25s.12-.08.12-.25V401a1.8,1.8,0,0,1-.49.37,2.22,2.22,0,0,0-.49.37c-.33.33-.49.58-.49.74-.33.33-.49.58-.49.74a3.39,3.39,0,0,0-.74,1.11c-.16.41-.25.53-.25.37l1.23-1.24c0,.33.17.33.49,0,.17-.16.29-.25.37-.25s.21-.08.37-.24v-.49A1,1,0,0,1,276.36,401.78Zm4-4.2.25.25c.33.17.49.17.49,0s.16-.25.49-.25c.16,0,.24-.33.24-1a1.29,1.29,0,0,0,.62-.49,3.79,3.79,0,0,1,.62-.74,3.73,3.73,0,0,0,.74-1l-.49-.49a.72.72,0,0,1-.49-.25,2.72,2.72,0,0,0-1,1.23,3.7,3.7,0,0,1-1.23,1.48,6,6,0,0,1-.62,1,8.84,8.84,0,0,1-.86,1l-.49,1-.25.25Zm4.2-5.68c-.33.33-.45.54-.37.62a1,1,0,0,1,.12.62c.17.33.29.41.37.25a3.89,3.89,0,0,1,.62-.74A1.82,1.82,0,0,0,286,392a3.66,3.66,0,0,1,1-.86c.33-.33.49-.53.49-.62a2.28,2.28,0,0,1,.25-.62c.33-.33.25-.49-.25-.49H287a2.26,2.26,0,0,0-1.23,1.23A2.23,2.23,0,0,1,284.51,391.9Zm4-3.21c0,.17.41,0,1.24-.49.66-.33,1-.53,1-.62s.16-.28.49-.62a9.21,9.21,0,0,0,.87-1,4.58,4.58,0,0,1,1.11-1l1.73-1.73a8.08,8.08,0,0,1,1-1.23l1-1a5.39,5.39,0,0,0,1.48-1.6,6.3,6.3,0,0,1,1-1.36c.33-.16.49-.33.49-.49a.72.72,0,0,1,.25-.49,2.19,2.19,0,0,0,.25-1c0-.16-.16-.25-.49-.25h-.49a5.66,5.66,0,0,0-1,1.48,1.55,1.55,0,0,1-.74.37,1.55,1.55,0,0,0-.74.37,2.56,2.56,0,0,0-.49.86,3.31,3.31,0,0,1-.74,1.11c-.33.33-.58.49-.74.49s-.41.16-.74.49a1.36,1.36,0,0,0-.62.49,3.42,3.42,0,0,1-.62.74c-.33.33-.45.58-.37.74a.9.9,0,0,1-.12.74,4.91,4.91,0,0,1-1.24,1.73,1.58,1.58,0,0,1-.74.74,3.87,3.87,0,0,0-1,.74A2.72,2.72,0,0,0,288.46,388.69Zm12.84-14.57-.49.49v.49q0,1.24,1.73-.49c.49-.49.7-.74.62-.74s0-.16.37-.49a1.86,1.86,0,0,0,.86-1c.08-.33.12-.41.12-.25A8.84,8.84,0,0,0,301.31,374.12Z"/><path class="cls-4" d="M414.16,402.52q5.93-3.45,9.14-5.19a73.49,73.49,0,0,0,7.41-4.69q11.36-7.9,18.52-13.83a12.12,12.12,0,0,1-5.8-6,21.13,21.13,0,0,1-1.6-8.27,12.75,12.75,0,0,1,2-7,25.69,25.69,0,0,1,4.45-5.31,29.17,29.17,0,0,1,6.17-4.69,31.68,31.68,0,0,1,5.93,1.48,21.69,21.69,0,0,1,4.32,2.59,6.69,6.69,0,0,1,2.59,4.08l-.49.49a3.8,3.8,0,0,1-.62.49,6.15,6.15,0,0,0-.87.74,32.72,32.72,0,0,0-5.18,5.43,14.23,14.23,0,0,0-1.85,3.46,5.49,5.49,0,0,0-.12,3.46,1,1,0,0,0,.24.74q1.23,4.2,5.19,3.7a17.59,17.59,0,0,0,3.46-.86c1.15-.41,2.38-.78,3.7-1.11q10.61-3.45,17-2.47a43.84,43.84,0,0,1,4.32,1.36,10,10,0,0,1,4.08,2.84q3.45,3.46,1.36,8.89a46.47,46.47,0,0,1-6.79,11.48,138.9,138.9,0,0,1-10.62,12.1q-5.93,6.06-10.25,11t-5.43,8.28q-1.11,3.33,3.83,3.58a31.58,31.58,0,0,0,10.74-1,96.73,96.73,0,0,0,12.6-4.07q6.54-2.59,13.46-5.93t13.34-7a356.54,356.54,0,0,0,31.36-19.51h8.89a330.87,330.87,0,0,1-36.55,23.46q-7.66,4.2-15.93,8.15t-16.42,6.91a103.41,103.41,0,0,1-15.93,4.45,47.23,47.23,0,0,1-14.2.74q-7.91-.74-10.13-4.32t-1-8.64a33.9,33.9,0,0,1,5.06-10.74q3.83-5.68,8-11t7.9-9.51a35.13,35.13,0,0,0,4.69-6.17,16,16,0,0,0,1-1.73c.33-1.15.28-1.93-.12-2.35a3.57,3.57,0,0,0-1.85-.86,6.41,6.41,0,0,0-3,.25,60.28,60.28,0,0,1-7.9,1.11,17.76,17.76,0,0,1-4-.12.48.48,0,0,1-.37-.12.53.53,0,0,0-.37-.12q-1.73,1.48-3,2.72a29.61,29.61,0,0,1-2.47,2.22,22,22,0,0,1-2.47,1.73,18.76,18.76,0,0,1-2.84,1.85,31.26,31.26,0,0,0-3.34,2.1q-4.2,2.72-8.64,5.31t-7.9,4.57q-4.2,2.47-8.15,4.45ZM445.52,360c.16-.33.2-.53.12-.62s0-.2.12-.37v-1h-.49l-.25.25c-.33.33-.49.58-.49.74,0,.33-.09.49-.25.49a1,1,0,0,1-.25.74l-.49.49v1l-.25.49v.49a1,1,0,0,1-.25.74.49.49,0,0,1-.12.37.5.5,0,0,0-.12.37v1.48c0,.49.08.74.25.74a1,1,0,0,0,.25.74l.74,1.48v.49a.69.69,0,0,0,.25.49v1a.22.22,0,0,1,.25.25v.25a.22.22,0,0,1,.24.25.43.43,0,0,0,.49.49c.33.17.41.12.25-.12a2,2,0,0,1-.25-1.11,1,1,0,0,0-.25-.74,1.93,1.93,0,0,0-.25-.74,1,1,0,0,0-.24-.74V367.2a3.54,3.54,0,0,0-.12-.74,5,5,0,0,1-.12-1.24,6.1,6.1,0,0,1,.25-2.22,1.44,1.44,0,0,0,.24-1,1,1,0,0,0,.25-.74,1.9,1.9,0,0,0,.25-.74A.7.7,0,0,1,445.52,360Zm3.46-5.93,1-1q2-2,1.48-1.73a7.93,7.93,0,0,1-1.24,1,8,8,0,0,0-1.23,1,14,14,0,0,0-2.22,2.22q-1,1-.74,1v.74c0,.33.16.33.49,0a6.86,6.86,0,0,0,.62-.74,9.46,9.46,0,0,1,.87-1A5,5,0,0,0,449,354.12Zm8.64,56.06a1.44,1.44,0,0,0,.25-1v-.25c-.33-.33-.66-.08-1,.74a3.87,3.87,0,0,0-.74,1,10.64,10.64,0,0,0-1.23,2.22l-.49.49a1,1,0,0,0-.25.74,1.9,1.9,0,0,1-.25.74.22.22,0,0,0,.25.25l.25-.49.49-.49a.72.72,0,0,0,.25-.49c0,.17,0,.25.12.25s.12-.08.12-.25h.25a.72.72,0,0,0,.25-.49,2,2,0,0,1,.86-.25c.25,0,.45-.16.62-.49.16-.16.08-.49-.25-1a2.24,2.24,0,0,0,.25-.62A2.17,2.17,0,0,1,457.62,410.17Zm11.61-12.84c0-.16-.25-.49-.74-1h-1a2.28,2.28,0,0,0-1.23,1.11,16.72,16.72,0,0,0-1,2.1.72.72,0,0,0-.49.25,3.38,3.38,0,0,0-.62.74,3.71,3.71,0,0,1-.62.74,2.22,2.22,0,0,0-.62,1,1.6,1.6,0,0,1-.37.74,2.13,2.13,0,0,0-.74,1.48l.25.25c.16,0,.33-.12.49-.37a4,4,0,0,1,.49-.62c.16,0,.41-.25.74-.74l.49-.49.74-.74c.16-.16.29-.25.37-.25s.2-.08.37-.25A.22.22,0,0,0,466,401h.25a1.61,1.61,0,0,0,.74-.74,5.21,5.21,0,0,1,1-1.24A3.12,3.12,0,0,0,469.23,397.33Zm6.42-7.41c.16-.49,0-.74-.49-.74h-.74q-1.24.25-1.48.74l-.49,1a4.47,4.47,0,0,1-1,1.11,3.81,3.81,0,0,0-1,1.36c-.49.49-.74.83-.74,1a4.08,4.08,0,0,0,.25,1q.49.74.62.12a1.83,1.83,0,0,1,.87-1.11,3.19,3.19,0,0,0,1.36-1.11,9.44,9.44,0,0,1,1.36-1.6,5.37,5.37,0,0,0,1-1.11C475.15,390.46,475.32,390.26,475.65,389.92Z"/><path class="cls-4" d="M588.26,446.48q-13.34,17.78-27.66,34.33a248.59,248.59,0,0,1-28.89,28.65l-7.53,6.3q-4.57,3.83-9.51,7.41t-9.38,6.3q-4.45,2.72-6.91,2.72a4.78,4.78,0,0,1-4.57-1.23,15,15,0,0,1-1.85-2.22,25.32,25.32,0,0,1-1.85-3.09,34.1,34.1,0,0,1-2.1-5.06,31,31,0,0,1-1.36-6.67,20.65,20.65,0,0,1,.87-7.9q1.24-4.69,7.53-12.6a183.75,183.75,0,0,1,14.82-16.3q8.52-8.4,18-16.18A135,135,0,0,1,545,448.7a192.11,192.11,0,0,1,18.52-11.36q9.63-5.18,20-9.72l3-3.87.74-1.23c.33-.33.49-.57.49-.74q2.72-4.44,6.17-9.26t7.16-9.75q1.48-2,2.59-3.58c.74-1.07,1.36-2,1.85-2.84l.25-.49q-6.92,5.93-15.06,12.1t-16.55,11.48a109.17,109.17,0,0,1-16.42,8.65,42.6,42.6,0,0,1-14.69,3.58H540a13.09,13.09,0,0,1-2.59-.25,20.15,20.15,0,0,1-7.16-1.89,9,9,0,0,1-5.19-8.35,25.87,25.87,0,0,1,.49-5.06,26.34,26.34,0,0,1,2.22-5.81A48.43,48.43,0,0,1,531,405q2.23-3.21,4.2-5.68,4.94-5.18,9.38-10t8.64-9q4-3.7,6.67-6.3a43.56,43.56,0,0,1,4.45-3.83,8.69,8.69,0,0,1,3.7-2q7.65-1.23,11-.87c2.22.25,4.24.46,6,.62a3.29,3.29,0,0,1,1.48.37q.74.37-.49,1.6a223.12,223.12,0,0,0-20.13,18.4q-10.25,10.5-19.39,20.87a15.64,15.64,0,0,0-1.6,1.85q-.61.87-1.11,1.6a19.06,19.06,0,0,0-3,6.05,7.48,7.48,0,0,0,0,3.83,4.74,4.74,0,0,0,2,2.72,7.53,7.53,0,0,0,2.22.25q6.67-.5,17.16-6.42t21.86-13.83q11.36-7.9,21.73-16.18t16.55-13.46c1-.82,1.89-1.56,2.72-2.22a25.11,25.11,0,0,0,2-1.73,17.69,17.69,0,0,1,3-3.58,6.8,6.8,0,0,1,3-1.85q2-.25,4.82-.49A17.92,17.92,0,0,1,643,366a7.05,7.05,0,0,1,3.83,2.1q1.48,1.61.74,5.06a72.67,72.67,0,0,1-10.25,14.94q-7,8.28-14.94,16.92-2,2.47-4.2,5.18t-4.69,5.68a.71.71,0,0,1,.49-.25q7.4-2.71,15.31-5.19,14.81-4.69,28-8t24.08-5.81a27.12,27.12,0,0,1,3.33-.74,18.6,18.6,0,0,0,3.09-.74q2-.49,3.58-.74a26.42,26.42,0,0,0,3.34-.74,12.8,12.8,0,0,1,3-.62,9.18,9.18,0,0,0,2.72-.62l4.45-.86a26.33,26.33,0,0,0,3.46-.87v.25l12.84,2.47v.25q-3.7.5-8.15,1.48-4,.74-9.51,2T691,399.8q-2,.5-4.07,1t-4.32,1q-1.73.5-3.46.87t-3.46.86q-2.22.5-4.57,1.11c-1.57.41-3.08.78-4.57,1.11q-14.08,3.7-29.51,8.4t-31,10.62l-4.82,5.64q-2.35,2.75-4.32,5.47t-3.83,4.82q-1.85,2.1-3.34,4.07A12.22,12.22,0,0,1,588.26,446.48Zm-90.63,74.33q1-1,7.9-7.53t17.66-17.41q10.74-10.87,24-25.31t26.79-31a238.78,238.78,0,0,0-34.82,21.73q-1,1-7.41,6.67t-14.08,13.09Q512,486.73,507,492.29a80.72,80.72,0,0,0-7.9,10.25,39.2,39.2,0,0,0-2.22,6.55Q495.66,513.64,497.63,520.81Zm24-6.17q.5-.74-.37-.37a13.76,13.76,0,0,0-2.84,2.1,15.68,15.68,0,0,0-1.24,1,1.94,1.94,0,0,0-.37.49.84.84,0,0,1-.37.37,5.75,5.75,0,0,0-1,.87q-3.45,2.72-2.47,2.22,2-1.24,3.83-2.35a16,16,0,0,0,3.08-2.35,8.28,8.28,0,0,0,1.24-1.36C521.09,515.17,521.25,515,521.58,514.64Zm9.14-6.91c.33-.33.83-.86,1.48-1.6s1.32-1.44,2-2.1a8.71,8.71,0,0,1,1.85-1.24,5.49,5.49,0,0,0,1.6-1.23l1.48-1.11a10,10,0,0,0,1.48-1.6,15,15,0,0,0,1.48-1.6,13.72,13.72,0,0,0,.74-1.36l.74-.74a3.78,3.78,0,0,1,.74-1,14.13,14.13,0,0,0,1.73-2,14.58,14.58,0,0,1,2.22-1.73,9.11,9.11,0,0,1,1-.87,9.48,9.48,0,0,0,1-.86c.49-.49,1-1,1.48-1.61a9.39,9.39,0,0,0,1.24-1.85c.16-.33.08-.33-.25,0a2.19,2.19,0,0,1-.49.37,1.8,1.8,0,0,0-.49.37,2.69,2.69,0,0,0-.74.49,3,3,0,0,1-.74.49,11.87,11.87,0,0,0-1.73,1.61,15.57,15.57,0,0,1-1.48,1.6,14.51,14.51,0,0,0-2,1.85,19.47,19.47,0,0,1-2.22,2.1c-.49.49-1.15,1.11-2,1.85s-1.64,1.52-2.47,2.35c-1,.82-1.89,1.64-2.72,2.47a29.72,29.72,0,0,1-2.47,2.22,31.88,31.88,0,0,0-3.83,3.46,14,14,0,0,1-2.84,2.47q-1.23.74-1.36,1.23a1.89,1.89,0,0,1-.87,1,8.71,8.71,0,0,1-.62.86,8.45,8.45,0,0,0-.62.87c-.16.16-.16.25,0,.25a1.94,1.94,0,0,0,.74-.25h.49a.22.22,0,0,0,.25-.25,7.93,7.93,0,0,0,2-1.6c.49-.58.91-1,1.24-1.36a5.74,5.74,0,0,1,1.48-1A5.81,5.81,0,0,0,530.72,507.72Zm8.89-108.66c.33-.16.33-.57,0-1.23.33-.33.49-.53.49-.62s.17-.28.49-.62l.49-1v-.49c0-.33-.41-.08-1.24.74a1.29,1.29,0,0,1-.49.62,1.37,1.37,0,0,0-.49.62,17.3,17.3,0,0,0-2,2.22l-.74.74a2.09,2.09,0,0,0-1.23,1.73l.24.25.49-.49,1.24-1.23c-.16.33-.12.45.12.37a2.41,2.41,0,0,0,.86-.62,1.38,1.38,0,0,1,.87-.49A1.33,1.33,0,0,0,539.61,399.06Zm6.91-8.89c-.16.17-.08.25.25.25a1,1,0,0,0,.62-.37l.62-.62a2,2,0,0,0,1.23-.74,2.65,2.65,0,0,0,.49-.74,1.33,1.33,0,0,0,.62-.49A1.33,1.33,0,0,1,551,387l1-.49a.22.22,0,0,0,.25-.25,7.76,7.76,0,0,0,1.23-1,14.18,14.18,0,0,0,1.24-1.48,3.38,3.38,0,0,0,1.11-1.11,2.44,2.44,0,0,1,.62-.87c.16-.16-.08-.41-.74-.74a2.15,2.15,0,0,1-1-.25,6.46,6.46,0,0,0-1.48,1.48c-.49.66-1.07,1.4-1.73,2.22l-.49.25a9.41,9.41,0,0,0-.86,1,8.33,8.33,0,0,1-.87,1,9.41,9.41,0,0,0-.86,1,6.21,6.21,0,0,1-.62.74,1.66,1.66,0,0,0-.74.74C546.86,389.52,546.69,389.84,546.52,390.17Zm15.81,84.21c.16-.33.12-.29-.12.12a7.17,7.17,0,0,1-1.6,1.6l-.86.87-.87.86a8.88,8.88,0,0,0-.87,1,4.59,4.59,0,0,1-1.11,1q-1.24,1.48-1.48,1.73a7.18,7.18,0,0,0-.74,1c-.33.33-.25.49.25.49a2.21,2.21,0,0,0,1-.25,8.73,8.73,0,0,0,1.48-1.36c.33-.41.66-.87,1-1.36a3.9,3.9,0,0,0,.62-.74,3.24,3.24,0,0,1,.62-.74l1.73-1.73a5.06,5.06,0,0,0,1-1.48Zm-3.7-97.3c-.66.66-.95,1.11-.87,1.36a3.72,3.72,0,0,1,.12,1.11c.16.49.33.53.49.12a3.57,3.57,0,0,1,1.24-1.36,3.63,3.63,0,0,0,1.73-1.24,14.28,14.28,0,0,1,1.73-2,11.68,11.68,0,0,1,1.48-1.36,2.87,2.87,0,0,0,.74-.87c.16-.49,0-.74-.49-.74h-1a3.71,3.71,0,0,0-2.47,2.22,5.41,5.41,0,0,1-1.11,1.24A21.4,21.4,0,0,0,558.63,377.08Zm15.31,83.47a7.28,7.28,0,0,1-1.36,1.85l-1.36,1.36v-.25a.82.82,0,0,0-.74.37,3.74,3.74,0,0,1-1,.86,5.19,5.19,0,0,1-2.22,3.09l-1.48,1.85c-.66.66-1,1.07-1,1.23a2.78,2.78,0,0,1-.37.62,2.62,2.62,0,0,0-.37.62c-.17.33,0,.49.49.49a2,2,0,0,0,.74-.25,1.8,1.8,0,0,1,.49-.37,1.41,1.41,0,0,0,.49-.62,4.92,4.92,0,0,0,1.23-1.73c.49-.66.95-1.28,1.36-1.85s.86-1.2,1.36-1.85a10.21,10.21,0,0,0,.87-1,8.52,8.52,0,0,1,.86-1,4.83,4.83,0,0,0,.87-1.24,4.62,4.62,0,0,1,.86-1.23,2.25,2.25,0,0,0,.62-1,2.14,2.14,0,0,1,.62-1,1.55,1.55,0,0,1,.74-.74Zm5.93-6.91c-.49.49-.74.82-.74,1v.25l1-1a8.47,8.47,0,0,0,1-1.23,16.41,16.41,0,0,1,1.24-1.61,17.78,17.78,0,0,0,1.23-1.6,14.46,14.46,0,0,0,.87-1.48,4.64,4.64,0,0,1,.86-1.24q.49-1,.25-.74a7.29,7.29,0,0,1-.86,1.23c-.41.49-.87,1.07-1.36,1.73.16-.33.16-.41,0-.25l-.74.74a6.33,6.33,0,0,1-.86.74,5.54,5.54,0,0,0-.87.74.62.62,0,0,0,0,1,1.35,1.35,0,0,0-.49.86A1.36,1.36,0,0,1,579.86,453.64Z"/><path class="cls-4" d="M286.56,51.46c8.58,0,12.53,15.66,7.19,33.9.09-4.9-2.06-6.25-4.2-6.26-7.15,0-34.26,28.33-69.65,70.46-11.21,13.3-22.51,27.5-35.15,43.47,6.12-.41,11.76-.83,17-.79,36.93.2,45.81,12.73,44.46,13.17s-6.67-2.71-21.21-2.79a140.56,140.56,0,0,0-27.4,2.52c-9,1.73-18.35,3.9-27.65,6.53C97.52,303.94,21.79,411.35,11.12,441.14c-1,2.67-1,4.9.15,4.9,5,0,10.09-4.85,15.5-9.27-7.23,8.87-19,20.39-23.53,20.37-3.57,0-4.52-8-1.17-17.38,15.93-44.47,72.57-133.27,132-214.48-39.65,18-74.38,43.7-79.64,61.05-2.47,7.55-4.51-10.72-1.64-20.06C63.36,232,116,209.13,153.7,199.1c31.41-41.71,61.63-79.42,97-117.54C268.36,62.94,281.32,51.43,286.56,51.46ZM329,18.27c-129.61-.72-251.15,98-269.15,148.22C49.5,195.4,71.49,208,72.75,209.79a1.82,1.82,0,0,1-1.35.44c-16-.09-39-11.81-24.73-50.94C82.68,61.46,214.74-.63,328.63,0c50.51.28,107.83,22.88,120,40.77,2.46,3.13-1,4-2.15,2.66C442,39.4,386.91,18.6,329,18.27Z"/><path class="cls-5" d="M109.06,469.73a26.77,26.77,0,0,1,5-.44c2.74,0,4.51.47,5.83,1.54a4.45,4.45,0,0,1,1.76,3.75,5,5,0,0,1-3.59,4.67v.06a5.47,5.47,0,0,1,4.38,5.33,5.72,5.72,0,0,1-1.8,4.25c-1.48,1.35-3.88,2-7.34,2a32.67,32.67,0,0,1-4.26-.25Zm2.74,8.7h2.49c2.9,0,4.6-1.51,4.6-3.56,0-2.49-1.89-3.47-4.67-3.47a11.93,11.93,0,0,0-2.43.19Zm0,10.18a15,15,0,0,0,2.3.12c2.84,0,5.45-1,5.45-4.13,0-2.9-2.49-4.1-5.48-4.1H111.8Z"/><path class="cls-5" d="M148.73,490.69v-9L142,469.45h3.12l3,5.86c.82,1.61,1.45,2.9,2.11,4.38h.06c.6-1.39,1.32-2.78,2.14-4.38l3.06-5.86h3.12l-7.12,12.19v9Z"/><path class="cls-5" d="M208.19,490a13.61,13.61,0,0,1-5.61,1c-6,0-10.49-3.78-10.49-10.75,0-6.65,4.51-11.15,11.09-11.15a11.42,11.42,0,0,1,5,.94l-.66,2.24a10,10,0,0,0-4.29-.88c-5,0-8.29,3.18-8.29,8.76,0,5.2,3,8.54,8.16,8.54a11,11,0,0,0,4.47-.88Z"/><path class="cls-5" d="M234.36,484l-2.21,6.68h-2.84l7.22-21.24h3.31l7.25,21.24h-2.93L241.9,484Zm7-2.14-2.08-6.12c-.47-1.39-.79-2.65-1.1-3.88h-.06c-.32,1.26-.66,2.55-1.07,3.85l-2.08,6.15Z"/><path class="cls-5" d="M287.42,481.36c-.16-3-.35-6.52-.31-9.17H287c-.73,2.49-1.61,5.13-2.68,8.07l-3.75,10.3H278.5l-3.43-10.12c-1-3-1.86-5.74-2.46-8.26h-.06c-.06,2.65-.22,6.21-.41,9.39l-.57,9.11H269l1.48-21.24h3.5l3.62,10.27c.88,2.61,1.61,4.95,2.14,7.15h.09c.54-2.14,1.29-4.47,2.24-7.15l3.78-10.27h3.5l1.32,21.24H288Z"/><path class="cls-5" d="M314.17,469.73a26.74,26.74,0,0,1,5-.44c2.74,0,4.51.47,5.83,1.54a4.45,4.45,0,0,1,1.77,3.75,5,5,0,0,1-3.59,4.67v.06a5.47,5.47,0,0,1,4.38,5.33,5.73,5.73,0,0,1-1.8,4.25c-1.48,1.35-3.88,2-7.34,2a32.61,32.61,0,0,1-4.25-.25Zm2.74,8.7h2.49c2.9,0,4.6-1.51,4.6-3.56,0-2.49-1.89-3.47-4.66-3.47a11.93,11.93,0,0,0-2.43.19Zm0,10.18a15,15,0,0,0,2.3.12c2.83,0,5.45-1,5.45-4.13,0-2.9-2.49-4.1-5.48-4.1h-2.27Z"/><path class="cls-5" d="M361.55,480.73H353.3v7.66h9.2v2.3H350.55V469.45H362v2.3H353.3v6.71h8.26Z"/><path class="cls-5" d="M385.37,469.73a28.82,28.82,0,0,1,5.26-.44c2.93,0,4.82.54,6.15,1.73a5.3,5.3,0,0,1,1.67,4,5.58,5.58,0,0,1-4,5.42v.1c1.64.57,2.62,2.08,3.12,4.28a34.08,34.08,0,0,0,1.64,5.83h-2.84a27.74,27.74,0,0,1-1.42-5.07c-.63-2.93-1.76-4-4.25-4.13h-2.58v9.2h-2.74Zm2.74,9.68h2.8c2.93,0,4.79-1.61,4.79-4,0-2.74-2-3.94-4.89-4a11.19,11.19,0,0,0-2.71.25Z"/><path class="cls-5" d="M439.78,479.85c0,7.31-4.44,11.19-9.87,11.19-5.61,0-9.55-4.35-9.55-10.78,0-6.74,4.19-11.15,9.86-11.15S439.78,473.55,439.78,479.85Zm-16.48.35c0,4.54,2.46,8.6,6.77,8.6s6.81-4,6.81-8.83c0-4.22-2.21-8.63-6.78-8.63S423.3,475.53,423.3,480.2Z"/><path class="cls-5" d="M462.27,487.35a9.71,9.71,0,0,0,4.92,1.39c2.8,0,4.44-1.48,4.44-3.62,0-2-1.14-3.12-4-4.22-3.46-1.23-5.61-3-5.61-6,0-3.31,2.74-5.77,6.87-5.77a9.67,9.67,0,0,1,4.7,1l-.76,2.24a8.46,8.46,0,0,0-4-1c-2.9,0-4,1.73-4,3.18,0,2,1.29,3,4.22,4.1,3.6,1.39,5.42,3.12,5.42,6.24,0,3.28-2.43,6.11-7.44,6.11a11,11,0,0,1-5.42-1.35Z"/></g></g></svg>